<svg width="150" height="26" viewBox="0 0 150 26" fill="none" xmlns="http://www.w3.org/2000/svg">
<g clip-path="url(#clip0_40000746_2309)">
<path fill-rule="evenodd" clip-rule="evenodd" d="M2.95174 16.8686L26.2427 6.00832C26.9751 5.66682 27.4433 4.93193 27.4433 4.12387C27.4433 2.60258 25.8631 1.5963 24.4845 2.23972L1.19732 13.1082C0.466876 13.4492 0 14.1822 0 14.9884C0 16.506 1.5762 17.51 2.95174 16.8686ZM20.4469 13.0122L1.19782 21.9878C0.467115 22.3286 0 23.0618 0 23.868C0 25.3855 1.57598 26.3895 2.95133 25.7482L22.2005 16.7725C22.9311 16.4318 23.3983 15.6986 23.3983 14.8924C23.3983 13.3749 21.8223 12.3709 20.4469 13.0122ZM9.84594 0.196839L1.19782 4.22936C0.467115 4.57008 0 5.30328 0 6.10948C0 7.62695 1.57598 8.63091 2.95133 7.98961L11.5994 3.95707C12.3301 3.61635 12.7973 2.88316 12.7973 2.07696C12.7973 0.559486 11.2213 -0.444475 9.84594 0.196839Z" fill="#34D2B9"/>
<path d="M146.793 21.5338V4.41016H149.766V21.5338H146.793Z" fill="#3A4848"/>
<path d="M127.697 21.5338L134.285 4.41016H137.615L144.203 21.5338H141.04L139.66 17.7762H132.24L130.861 21.5338H127.697ZM133.144 15.2551H138.757L135.951 7.59706L133.144 15.2551Z" fill="#3A4848"/>
<path d="M117.211 21.5338V14.0423H109.576V21.5338H106.604V4.41016H109.576V11.4023H117.211V4.41016H120.183V21.5338H117.211Z" fill="#3A4848"/>
<path d="M95.4613 21.7713C90.5144 21.7713 86.8281 18.0372 86.8281 12.9715C86.8281 7.90579 90.5144 4.17188 95.4613 4.17188C99.5044 4.17188 102.739 6.59773 103.405 10.1414L100.242 10.4743C99.8135 8.1674 97.9347 6.7642 95.4613 6.7642C92.1793 6.7642 89.9436 9.35653 89.9436 12.9715C89.9436 16.5865 92.1793 19.1789 95.4613 19.1789C97.9347 19.1789 99.8135 17.7281 100.242 15.3736L103.405 15.7066C102.667 19.3216 99.4568 21.7713 95.4613 21.7713Z" fill="#3A4848"/>
<path d="M75.4821 21.7713C70.3925 21.7713 66.6348 17.9659 66.6348 12.9715C66.6348 7.97713 70.3925 4.17188 75.4821 4.17188C80.5715 4.17188 84.3055 7.97713 84.3055 12.9715C84.3055 17.9659 80.5715 21.7713 75.4821 21.7713ZM75.4821 19.1789C78.7641 19.1789 81.1899 16.5389 81.1899 12.9715C81.1899 9.40411 78.7641 6.7642 75.4821 6.7642C72.1762 6.7642 69.7504 9.40411 69.7504 12.9715C69.7504 16.5389 72.1762 19.1789 75.4821 19.1789Z" fill="#3A4848"/>
<path d="M52.9199 21.5338V4.41016H58.9132C62.1477 4.41016 64.4784 6.55061 64.4784 9.61861C64.4784 12.6866 62.1477 14.8271 58.8656 14.8271H55.8928V21.5338H52.9199ZM58.509 12.2823C60.245 12.2823 61.3628 11.2359 61.3628 9.61861C61.3628 8.00137 60.245 6.97871 58.5327 6.97871H55.8928V12.2823H58.509Z" fill="#3A4848"/>
<path d="M38.2539 21.5338V4.41016H49.3843V7.05006H41.2267V11.2834H47.9098V13.9233H41.2267V18.894H49.4081V21.5338H38.2539Z" fill="#3A4848"/>
</g>
<defs>
<clipPath id="clip0_40000746_2309">
<rect width="149.769" height="26" fill="white"/>
</clipPath>
</defs>
</svg>
